<mxfile host="app.diagrams.net" modified="2023-09-15T10:53:14.735Z" agent="Mozilla/5.0 (Windows NT 10.0; Win64; x64; rv:109.0) Gecko/20100101 Firefox/117.0" etag="P3c-5k1KSJv_sk060DhN" version="21.7.5" type="github">
  <diagram id="6a731a19-8d31-9384-78a2-239565b7b9f0" name="Page-1">
    <mxGraphModel dx="1050" dy="566" grid="1" gridSize="10" guides="1" tooltips="1" connect="1" arrows="1" fold="1" page="1" pageScale="1" pageWidth="1169" pageHeight="827" background="none" math="0" shadow="0">
      <root>
        <mxCell id="0" />
        <mxCell id="1" parent="0" />
        <mxCell id="2" value="start" style="shape=mxgraph.flowchart.terminator;strokeWidth=2;gradientColor=none;gradientDirection=north;fontStyle=0;html=1;" parent="1" vertex="1">
          <mxGeometry x="260" y="50" width="120" height="30" as="geometry" />
        </mxCell>
        <mxCell id="7" style="fontStyle=1;strokeColor=#003366;strokeWidth=1;html=1;" parent="1" source="2" target="ND_fbCrq1BbmrggnkjyX-55" edge="1">
          <mxGeometry relative="1" as="geometry">
            <mxPoint x="320" y="130" as="targetPoint" />
          </mxGeometry>
        </mxCell>
        <mxCell id="ND_fbCrq1BbmrggnkjyX-59" style="edgeStyle=orthogonalEdgeStyle;rounded=0;orthogonalLoop=1;jettySize=auto;html=1;" edge="1" parent="1" source="ND_fbCrq1BbmrggnkjyX-55" target="ND_fbCrq1BbmrggnkjyX-56">
          <mxGeometry relative="1" as="geometry" />
        </mxCell>
        <mxCell id="ND_fbCrq1BbmrggnkjyX-55" value="&lt;div&gt;INITIALISE&lt;/div&gt;&lt;div&gt;MCU&lt;br&gt;&lt;/div&gt;" style="rounded=0;whiteSpace=wrap;html=1;" vertex="1" parent="1">
          <mxGeometry x="260" y="100" width="120" height="40" as="geometry" />
        </mxCell>
        <mxCell id="ND_fbCrq1BbmrggnkjyX-65" style="edgeStyle=orthogonalEdgeStyle;rounded=0;orthogonalLoop=1;jettySize=auto;html=1;" edge="1" parent="1" source="ND_fbCrq1BbmrggnkjyX-56" target="ND_fbCrq1BbmrggnkjyX-62">
          <mxGeometry relative="1" as="geometry" />
        </mxCell>
        <mxCell id="ND_fbCrq1BbmrggnkjyX-56" value="&lt;div&gt;SETUP&lt;/div&gt;&lt;div&gt;ACCESS POINT&lt;/div&gt;" style="rounded=0;whiteSpace=wrap;html=1;" vertex="1" parent="1">
          <mxGeometry x="260" y="160" width="120" height="40" as="geometry" />
        </mxCell>
        <mxCell id="ND_fbCrq1BbmrggnkjyX-58" style="edgeStyle=orthogonalEdgeStyle;rounded=0;orthogonalLoop=1;jettySize=auto;html=1;exitX=0.5;exitY=1;exitDx=0;exitDy=0;" edge="1" parent="1" source="ND_fbCrq1BbmrggnkjyX-56" target="ND_fbCrq1BbmrggnkjyX-56">
          <mxGeometry relative="1" as="geometry" />
        </mxCell>
        <mxCell id="ND_fbCrq1BbmrggnkjyX-63" style="edgeStyle=orthogonalEdgeStyle;rounded=0;orthogonalLoop=1;jettySize=auto;html=1;" edge="1" parent="1" source="ND_fbCrq1BbmrggnkjyX-62" target="ND_fbCrq1BbmrggnkjyX-64">
          <mxGeometry relative="1" as="geometry">
            <mxPoint x="320" y="320" as="targetPoint" />
          </mxGeometry>
        </mxCell>
        <mxCell id="ND_fbCrq1BbmrggnkjyX-68" style="edgeStyle=orthogonalEdgeStyle;rounded=0;orthogonalLoop=1;jettySize=auto;html=1;" edge="1" parent="1" source="ND_fbCrq1BbmrggnkjyX-62">
          <mxGeometry relative="1" as="geometry">
            <mxPoint x="650" y="260" as="targetPoint" />
          </mxGeometry>
        </mxCell>
        <mxCell id="ND_fbCrq1BbmrggnkjyX-62" value="&lt;div&gt;WHILE&lt;/div&gt;&lt;div&gt;MCU&lt;/div&gt;&lt;div&gt;IS ON&lt;br&gt;&lt;/div&gt;" style="rhombus;whiteSpace=wrap;html=1;" vertex="1" parent="1">
          <mxGeometry x="280" y="220" width="80" height="80" as="geometry" />
        </mxCell>
        <mxCell id="ND_fbCrq1BbmrggnkjyX-83" style="edgeStyle=orthogonalEdgeStyle;rounded=0;orthogonalLoop=1;jettySize=auto;html=1;" edge="1" parent="1" source="ND_fbCrq1BbmrggnkjyX-64" target="ND_fbCrq1BbmrggnkjyX-69">
          <mxGeometry relative="1" as="geometry" />
        </mxCell>
        <mxCell id="ND_fbCrq1BbmrggnkjyX-64" value="LISTEN FOR HTTP REQUEST" style="shape=parallelogram;perimeter=parallelogramPerimeter;whiteSpace=wrap;html=1;fixedSize=1;" vertex="1" parent="1">
          <mxGeometry x="240" y="320" width="160" height="40" as="geometry" />
        </mxCell>
        <mxCell id="ND_fbCrq1BbmrggnkjyX-86" style="edgeStyle=orthogonalEdgeStyle;rounded=0;orthogonalLoop=1;jettySize=auto;html=1;" edge="1" parent="1" source="ND_fbCrq1BbmrggnkjyX-69" target="ND_fbCrq1BbmrggnkjyX-72">
          <mxGeometry relative="1" as="geometry" />
        </mxCell>
        <mxCell id="ND_fbCrq1BbmrggnkjyX-97" style="edgeStyle=orthogonalEdgeStyle;rounded=0;orthogonalLoop=1;jettySize=auto;html=1;entryX=1;entryY=0.5;entryDx=0;entryDy=0;" edge="1" parent="1" source="ND_fbCrq1BbmrggnkjyX-69" target="ND_fbCrq1BbmrggnkjyX-64">
          <mxGeometry relative="1" as="geometry">
            <mxPoint x="490" y="300" as="targetPoint" />
            <Array as="points">
              <mxPoint x="531" y="430" />
              <mxPoint x="531" y="340" />
            </Array>
          </mxGeometry>
        </mxCell>
        <mxCell id="ND_fbCrq1BbmrggnkjyX-69" value="IF REQUEST IS RECEIVED" style="rhombus;whiteSpace=wrap;html=1;" vertex="1" parent="1">
          <mxGeometry x="265" y="380" width="110" height="100" as="geometry" />
        </mxCell>
        <mxCell id="ND_fbCrq1BbmrggnkjyX-88" style="edgeStyle=orthogonalEdgeStyle;rounded=0;orthogonalLoop=1;jettySize=auto;html=1;" edge="1" parent="1" source="ND_fbCrq1BbmrggnkjyX-70" target="ND_fbCrq1BbmrggnkjyX-74">
          <mxGeometry relative="1" as="geometry" />
        </mxCell>
        <mxCell id="ND_fbCrq1BbmrggnkjyX-70" value="&lt;div&gt;EXTRACT DATA&lt;/div&gt;&lt;div&gt;FROM REQUEST&lt;br&gt;&lt;/div&gt;" style="rounded=0;whiteSpace=wrap;html=1;" vertex="1" parent="1">
          <mxGeometry x="260" y="570" width="120" height="40" as="geometry" />
        </mxCell>
        <mxCell id="ND_fbCrq1BbmrggnkjyX-71" style="edgeStyle=orthogonalEdgeStyle;rounded=0;orthogonalLoop=1;jettySize=auto;html=1;exitX=0.5;exitY=1;exitDx=0;exitDy=0;" edge="1" parent="1" source="ND_fbCrq1BbmrggnkjyX-70" target="ND_fbCrq1BbmrggnkjyX-70">
          <mxGeometry relative="1" as="geometry" />
        </mxCell>
        <mxCell id="ND_fbCrq1BbmrggnkjyX-87" style="edgeStyle=orthogonalEdgeStyle;rounded=0;orthogonalLoop=1;jettySize=auto;html=1;" edge="1" parent="1" source="ND_fbCrq1BbmrggnkjyX-72" target="ND_fbCrq1BbmrggnkjyX-70">
          <mxGeometry relative="1" as="geometry" />
        </mxCell>
        <mxCell id="ND_fbCrq1BbmrggnkjyX-72" value="PARSE REQUEST" style="rounded=0;whiteSpace=wrap;html=1;" vertex="1" parent="1">
          <mxGeometry x="260" y="510" width="120" height="40" as="geometry" />
        </mxCell>
        <mxCell id="ND_fbCrq1BbmrggnkjyX-91" style="edgeStyle=orthogonalEdgeStyle;rounded=0;orthogonalLoop=1;jettySize=auto;html=1;" edge="1" parent="1" source="ND_fbCrq1BbmrggnkjyX-73" target="ND_fbCrq1BbmrggnkjyX-77">
          <mxGeometry relative="1" as="geometry" />
        </mxCell>
        <mxCell id="ND_fbCrq1BbmrggnkjyX-73" value="SET CAR SPEED AND DIRECTION" style="rounded=0;whiteSpace=wrap;html=1;" vertex="1" parent="1">
          <mxGeometry x="260" y="760" width="120" height="50" as="geometry" />
        </mxCell>
        <mxCell id="ND_fbCrq1BbmrggnkjyX-89" style="edgeStyle=orthogonalEdgeStyle;rounded=0;orthogonalLoop=1;jettySize=auto;html=1;" edge="1" parent="1" source="ND_fbCrq1BbmrggnkjyX-74" target="ND_fbCrq1BbmrggnkjyX-75">
          <mxGeometry relative="1" as="geometry" />
        </mxCell>
        <mxCell id="ND_fbCrq1BbmrggnkjyX-74" value="SET SERVO ANGLES" style="shape=parallelogram;perimeter=parallelogramPerimeter;whiteSpace=wrap;html=1;fixedSize=1;" vertex="1" parent="1">
          <mxGeometry x="240" y="630" width="160" height="40" as="geometry" />
        </mxCell>
        <mxCell id="ND_fbCrq1BbmrggnkjyX-90" style="edgeStyle=orthogonalEdgeStyle;rounded=0;orthogonalLoop=1;jettySize=auto;html=1;" edge="1" parent="1" source="ND_fbCrq1BbmrggnkjyX-75" target="ND_fbCrq1BbmrggnkjyX-73">
          <mxGeometry relative="1" as="geometry" />
        </mxCell>
        <mxCell id="ND_fbCrq1BbmrggnkjyX-75" value="SET PUMP INTENSITY" style="shape=parallelogram;perimeter=parallelogramPerimeter;whiteSpace=wrap;html=1;fixedSize=1;" vertex="1" parent="1">
          <mxGeometry x="240" y="700" width="160" height="40" as="geometry" />
        </mxCell>
        <mxCell id="ND_fbCrq1BbmrggnkjyX-92" style="edgeStyle=orthogonalEdgeStyle;rounded=0;orthogonalLoop=1;jettySize=auto;html=1;" edge="1" parent="1" source="ND_fbCrq1BbmrggnkjyX-77" target="ND_fbCrq1BbmrggnkjyX-79">
          <mxGeometry relative="1" as="geometry" />
        </mxCell>
        <mxCell id="ND_fbCrq1BbmrggnkjyX-94" style="edgeStyle=orthogonalEdgeStyle;rounded=0;orthogonalLoop=1;jettySize=auto;html=1;" edge="1" parent="1" source="ND_fbCrq1BbmrggnkjyX-77" target="ND_fbCrq1BbmrggnkjyX-78">
          <mxGeometry relative="1" as="geometry" />
        </mxCell>
        <mxCell id="ND_fbCrq1BbmrggnkjyX-77" value="IF OBSTACLE IS ENCOUNTERED" style="rhombus;whiteSpace=wrap;html=1;" vertex="1" parent="1">
          <mxGeometry x="257.5" y="840" width="125" height="113" as="geometry" />
        </mxCell>
        <mxCell id="ND_fbCrq1BbmrggnkjyX-78" value="CAR SPEED TO ZERO" style="rounded=0;whiteSpace=wrap;html=1;" vertex="1" parent="1">
          <mxGeometry x="440" y="871.5" width="120" height="50" as="geometry" />
        </mxCell>
        <mxCell id="ND_fbCrq1BbmrggnkjyX-93" style="edgeStyle=orthogonalEdgeStyle;rounded=0;orthogonalLoop=1;jettySize=auto;html=1;" edge="1" parent="1" source="ND_fbCrq1BbmrggnkjyX-79" target="ND_fbCrq1BbmrggnkjyX-81">
          <mxGeometry relative="1" as="geometry" />
        </mxCell>
        <mxCell id="ND_fbCrq1BbmrggnkjyX-95" style="edgeStyle=orthogonalEdgeStyle;rounded=0;orthogonalLoop=1;jettySize=auto;html=1;entryX=0;entryY=0.5;entryDx=0;entryDy=0;" edge="1" parent="1" source="ND_fbCrq1BbmrggnkjyX-79" target="ND_fbCrq1BbmrggnkjyX-80">
          <mxGeometry relative="1" as="geometry" />
        </mxCell>
        <mxCell id="ND_fbCrq1BbmrggnkjyX-79" value="IF DIRECTION IS FORWARD" style="rhombus;whiteSpace=wrap;html=1;" vertex="1" parent="1">
          <mxGeometry x="257.5" y="980" width="125" height="113" as="geometry" />
        </mxCell>
        <mxCell id="ND_fbCrq1BbmrggnkjyX-96" style="edgeStyle=orthogonalEdgeStyle;rounded=0;orthogonalLoop=1;jettySize=auto;html=1;entryX=0.5;entryY=0;entryDx=0;entryDy=0;" edge="1" parent="1" source="ND_fbCrq1BbmrggnkjyX-80" target="ND_fbCrq1BbmrggnkjyX-82">
          <mxGeometry relative="1" as="geometry" />
        </mxCell>
        <mxCell id="ND_fbCrq1BbmrggnkjyX-80" value="IF DIRECTION IS REVERSE" style="rhombus;whiteSpace=wrap;html=1;" vertex="1" parent="1">
          <mxGeometry x="500" y="980" width="125" height="113" as="geometry" />
        </mxCell>
        <mxCell id="ND_fbCrq1BbmrggnkjyX-81" value="MOVE CAR FORWARD" style="shape=parallelogram;perimeter=parallelogramPerimeter;whiteSpace=wrap;html=1;fixedSize=1;" vertex="1" parent="1">
          <mxGeometry x="240" y="1120" width="160" height="40" as="geometry" />
        </mxCell>
        <mxCell id="ND_fbCrq1BbmrggnkjyX-102" style="edgeStyle=orthogonalEdgeStyle;rounded=0;orthogonalLoop=1;jettySize=auto;html=1;entryX=0;entryY=0.5;entryDx=0;entryDy=0;" edge="1" parent="1" source="ND_fbCrq1BbmrggnkjyX-82" target="ND_fbCrq1BbmrggnkjyX-64">
          <mxGeometry relative="1" as="geometry">
            <mxPoint x="260" y="339" as="targetPoint" />
            <Array as="points">
              <mxPoint x="563" y="1210" />
              <mxPoint x="71" y="1210" />
              <mxPoint x="71" y="339" />
            </Array>
          </mxGeometry>
        </mxCell>
        <mxCell id="ND_fbCrq1BbmrggnkjyX-82" value="MOVE CAR BACKWARD" style="shape=parallelogram;perimeter=parallelogramPerimeter;whiteSpace=wrap;html=1;fixedSize=1;" vertex="1" parent="1">
          <mxGeometry x="482.5" y="1120" width="160" height="40" as="geometry" />
        </mxCell>
        <mxCell id="ND_fbCrq1BbmrggnkjyX-103" value="" style="endArrow=none;html=1;rounded=0;" edge="1" parent="1">
          <mxGeometry width="50" height="50" relative="1" as="geometry">
            <mxPoint x="320" y="1210" as="sourcePoint" />
            <mxPoint x="320" y="1160" as="targetPoint" />
          </mxGeometry>
        </mxCell>
        <mxCell id="ND_fbCrq1BbmrggnkjyX-106" value="&lt;div&gt;STOP&lt;/div&gt;" style="shape=mxgraph.flowchart.terminator;strokeWidth=2;gradientColor=none;gradientDirection=north;fontStyle=0;html=1;" vertex="1" parent="1">
          <mxGeometry x="650" y="245" width="120" height="30" as="geometry" />
        </mxCell>
      </root>
    </mxGraphModel>
  </diagram>
</mxfile>
